<svg xmlns="http://www.w3.org/2000/svg" viewBox="0 0 256 256">
	<defs>
		<linearGradient id="bg" x1="0" y1="0" x2="1" y2="1">
			<stop offset="0%" stop-color="#170f27"/>
			<stop offset="100%" stop-color="#3b235c"/>
		</linearGradient>
	</defs>
	<rect width="256" height="256" rx="28" fill="url(#bg)"/>
	<path d="M56 222c12-38 34-60 72-60 36 0 58 22 72 60" fill="#5d3792"/>
	<ellipse cx="128" cy="90" rx="42" ry="46" fill="#efe8ff"/>
	<path d="M82 72c8-30 34-48 66-48 22 0 42 10 56 30-14 4-24 10-34 20-14-8-28-12-44-12-16 0-28 2-44 10z" fill="#211334"/>
	<circle cx="112" cy="94" r="5" fill="#2e1849"/>
	<circle cx="144" cy="94" r="5" fill="#2e1849"/>
	<path d="M112 118c8 6 24 6 32 0" stroke="#2e1849" stroke-width="5" fill="none" stroke-linecap="round"/>
	<path d="M72 146c18-14 34-20 56-20 22 0 38 6 56 20" stroke="#8d63d8" stroke-width="8" fill="none" stroke-linecap="round"/>
	<path d="M38 46l22 10M218 46l-22 10M28 106l20 4M228 106l-20 4" stroke="#80d394" stroke-width="6" stroke-linecap="round"/>
</svg>
